<?xml version="1.0" standalone="no"?>
<!DOCTYPE svg PUBLIC "-//W3C//DTD SVG 20010904//EN"
 "http://www.w3.org/TR/2001/REC-SVG-20010904/DTD/svg10.dtd">
<svg version="1.0" xmlns="http://www.w3.org/2000/svg"
 width="146.000000pt" height="146.000000pt" viewBox="0 0 146.000000 146.000000"
 preserveAspectRatio="xMidYMid meet">
<metadata>
Created by potrace 1.14, written by Peter Selinger 2001-2017
</metadata>
<g transform="translate(0.000000,146.000000) scale(0.100000,-0.100000)"
fill="#000000" stroke="none">
<path d="M855 1453 c-87 -18 -113 -42 -94 -90 30 -73 72 -160 87 -178 9 -11 4
-9 -10 5 -15 14 -49 61 -76 105 -47 75 -52 80 -82 77 -36 -3 -103 -34 -143
-68 -25 -21 -34 -43 -14 -36 5 1 6 -2 2 -7 -3 -6 -12 -8 -20 -4 -18 6 -45 -14
-45 -33 0 -18 103 -185 143 -233 30 -34 30 -35 3 -11 -15 14 -62 67 -103 118
-42 50 -81 92 -88 92 -34 0 -183 -172 -207 -241 -4 -9 17 -45 52 -93 69 -92
110 -135 169 -182 24 -19 41 -34 37 -34 -22 0 -132 84 -199 151 -43 44 -87 79
-97 79 -33 0 -85 -142 -96 -260 -8 -78 5 -130 47 -193 42 -64 97 -100 242
-158 66 -27 124 -54 128 -60 10 -17 -10 -68 -32 -80 -35 -18 -19 -69 21 -69
13 0 55 41 69 67 18 34 18 120 1 137 -8 8 -73 37 -143 64 -151 59 -199 90
-235 151 -33 56 -36 156 -8 243 l19 57 76 -70 c80 -74 211 -149 260 -149 19 0
33 11 52 38 14 20 25 43 25 51 -1 8 -27 30 -60 49 -67 39 -143 110 -209 196
l-46 60 40 57 c22 31 51 66 63 78 l23 22 39 -48 c59 -75 196 -212 230 -234 37
-22 53 -18 81 19 37 52 36 60 -13 105 -55 49 -119 130 -168 212 l-35 59 27 23
c27 24 102 67 106 61 1 -2 23 -34 49 -73 25 -38 72 -96 104 -127 54 -53 60
-56 82 -45 13 7 33 28 44 48 l20 35 -41 55 c-40 53 -92 152 -92 176 0 13 102
29 118 19 6 -3 27 -36 47 -74 42 -75 52 -85 80 -77 68 20 131 33 137 28 5 -2
20 -27 34 -56 24 -46 25 -52 10 -63 -23 -16 -151 -40 -234 -43 -16 -1 -27 -11
-38 -36 -35 -85 -4 -100 198 -99 l136 0 0 -70 c0 -39 -4 -76 -9 -82 -14 -18
-291 -26 -352 -11 -46 12 -59 2 -76 -54 -16 -52 -7 -63 65 -84 96 -28 177 -39
317 -44 28 -1 29 -2 22 -43 -10 -61 -44 -148 -58 -149 -69 -6 -250 37 -334 80
-59 29 -62 30 -81 13 -11 -9 -23 -33 -26 -53 -6 -32 -2 -40 36 -78 37 -37 162
-106 276 -152 17 -8 32 -20 32 -28 0 -33 -43 -81 -96 -107 -111 -54 -244 -36
-347 49 -57 47 -91 52 -100 17 -7 -27 66 -91 148 -130 141 -67 319 -42 411 58
37 40 71 129 61 156 -4 10 -33 29 -64 43 -136 61 -219 102 -238 117 l-20 17
20 -9 c34 -16 167 -50 220 -57 28 -3 69 -8 91 -11 35 -5 45 -2 63 17 27 29 59
115 76 204 17 86 5 115 -48 116 -105 1 -265 18 -271 27 -2 4 28 7 67 7 129 1
259 13 270 24 17 17 16 249 -1 279 -11 20 -19 23 -50 18 -20 -3 -77 -8 -127
-11 l-90 -5 63 15 c113 25 170 45 175 59 13 33 -33 154 -81 214 -22 28 -48 30
-122 10 -30 -9 -58 -14 -63 -11 -4 2 -21 32 -39 66 -17 34 -36 65 -42 69 -11
8 -114 8 -151 1z"/>
</g>
</svg>
